<?xml version="1.0" standalone="no"?>
<!DOCTYPE svg PUBLIC "-//W3C//DTD SVG 20010904//EN"
 "http://www.w3.org/TR/2001/REC-SVG-20010904/DTD/svg10.dtd">
<svg version="1.0" xmlns="http://www.w3.org/2000/svg"
 width="200" height="200" viewBox="0 0 544.000000 544.000000"
 preserveAspectRatio="xMidYMid meet">

<g transform="translate(0.000000,544.000000) scale(0.100000,-0.100000)"
fill="#1D42F3" stroke="none">
<path fill="#1D42F3" d="M1212 5237 c-13 -6 -284 -298 -603 -650 -623 -688 -605 -664 -580
-748 10 -34 59 -80 364 -346 194 -170 381 -333 416 -363 l63 -55 1837 -3
c1010 -1 1846 0 1859 3 23 6 46 25 527 443 308 268 330 290 339 334 13 68 -5
95 -232 345 -505 555 -871 960 -897 991 -50 60 -126 79 -186 48 -24 -12 -230
-197 -1042 -934 -147 -133 -279 -247 -293 -252 -35 -14 -94 -12 -120 3 -12 7
-307 270 -655 586 -349 316 -647 582 -664 593 -33 20 -97 23 -133 5z"/>
<path fill="#1D42F3" d="M563 2103 c-17 -10 -144 -116 -282 -237 -209 -182 -253 -226 -266
-261 -31 -81 -32 -80 376 -530 205 -226 459 -507 566 -625 106 -118 208 -225
225 -237 36 -27 99 -30 140 -9 14 8 147 123 295 257 147 134 432 392 633 574
201 182 376 339 390 348 29 20 104 22 137 4 12 -7 108 -91 214 -187 893 -809
1078 -975 1104 -991 34 -22 92 -25 130 -7 29 13 1158 1253 1181 1296 19 37 17
91 -4 127 -19 30 -503 459 -545 482 -17 10 -496 12 -2142 13 -2001 0 -2122 -1
-2152 -17z"/>
</g>
</svg>
