<svg xmlns="http://www.w3.org/2000/svg" xmlns:xlink="http://www.w3.org/1999/xlink" viewBox="0,0,256,256" width="256px" height="256px" fill-rule="nonzero"><g fill="none" fill-rule="nonzero" stroke="none" stroke-width="none" stroke-linecap="none" stroke-linejoin="none" stroke-miterlimit="10" stroke-dasharray="" stroke-dashoffset="0" font-family="none" font-weight="none" font-size="none" text-anchor="none" style="mix-blend-mode: normal"><g transform="scale(4,4)"><path d="M9.129,36.751l7.537,2.512l7.778,-7.778l-1.939,-1.939c-2.835,-2.835 -7.43,-2.835 -10.265,0l-3.893,3.894c-1.051,1.051 -0.629,2.841 0.782,3.311z" fill="#1d42f3" stroke="none" stroke-width="1" stroke-linecap="butt" stroke-linejoin="miter"></path><path d="M26.249,53.871l-2.512,-7.537l7.778,-7.778l1.939,1.939c2.835,2.835 2.835,7.43 0,10.265l-3.893,3.893c-1.052,1.051 -2.842,0.629 -3.312,-0.782z" fill="#1d42f3" stroke="none" stroke-width="1" stroke-linecap="butt" stroke-linejoin="miter"></path><path d="M11.997,41.439c2.971,-2.971 6.923,-2.641 9.564,0c2.641,2.641 2.971,6.593 0,9.564c-2.48,2.48 -7.533,2.959 -10.414,3.019c-1.223,0.025 -2.195,-0.946 -2.17,-2.17c0.061,-2.881 0.54,-7.933 3.02,-10.413z" fill="#fd3c4f" stroke="none" stroke-width="1" stroke-linecap="butt" stroke-linejoin="miter"></path><ellipse cx="32" cy="61" rx="22.5" ry="3" fill="#000000" stroke="none" stroke-width="1" stroke-linecap="butt" stroke-linejoin="miter" opacity="0.3"></ellipse><path d="M15.518,41.439c1.877,-1.877 4.375,-1.669 6.043,0c1.669,1.669 1.877,4.166 0,6.043c-1.567,1.567 -4.76,1.87 -6.58,1.908c-0.773,0.016 -1.387,-0.598 -1.371,-1.371c0.038,-1.821 0.341,-5.013 1.908,-6.58z" fill="#ffce29" stroke="none" stroke-width="1" stroke-linecap="butt" stroke-linejoin="miter"></path><path d="M24.036,46.634l-7.669,-7.669c0,0 5.752,-17.256 11.504,-23.008c8.948,-8.948 22.964,-8.992 25.565,-6.391c2.601,2.601 2.556,16.617 -6.391,25.565c-5.753,5.751 -23.009,11.503 -23.009,11.503z" fill="#b4c5e4" stroke="none" stroke-width="1" stroke-linecap="butt" stroke-linejoin="miter"></path><circle cx="40" cy="23" r="6" fill="#0089ad" stroke="none" stroke-width="1" stroke-linecap="butt" stroke-linejoin="miter"></circle><circle cx="40" cy="23" r="6" fill="#1d42f3" stroke="none" stroke-width="1" stroke-linecap="butt" stroke-linejoin="miter"></circle><path d="M54.911,15.003c-2.55,-0.174 -4.858,1.591 -5.276,4.161c-0.458,2.812 -1.861,8.165 -6.127,12.431c-0.61,0.609 -4.418,3.855 -10.721,6.247c-1.244,0.554 -2.208,1.591 -2.669,2.872c-0.462,1.281 -0.381,2.694 0.223,3.915c0.205,0.414 0.278,0.896 0.207,1.359c-0.051,0.327 -0.201,0.807 -0.629,1.235c-1.953,1.952 -1.954,5.118 -0.001,7.071c0,0 0,0 0.001,0.001l3.536,-3.536c2.26,-2.26 2.712,-5.637 1.368,-8.351c4.653,-2.071 9.617,-4.674 12.222,-7.279c6.093,-6.094 8.055,-14.537 7.866,-20.126z" fill="#000000" stroke="none" stroke-width="1" stroke-linecap="butt" stroke-linejoin="miter" opacity="0.15"></path><path d="M31.406,19.491c4.266,-4.266 9.618,-5.669 12.429,-6.126c2.57,-0.418 4.336,-2.729 4.16,-5.276c-5.588,-0.189 -14.03,1.773 -20.125,7.867c-2.605,2.605 -5.209,7.569 -7.279,12.222c-2.714,-1.344 -6.091,-0.892 -8.351,1.368l-3.535,3.535c1.953,1.953 5.118,1.953 7.071,0c0.851,-0.771 1.683,-0.811 2.596,-0.423c1.22,0.605 2.635,0.686 3.916,0.223c1.281,-0.462 2.318,-1.426 2.872,-2.67c1.574,-3.608 4.24,-8.761 6.246,-10.72z" fill="#ffffff" stroke="none" stroke-width="1" stroke-linecap="butt" stroke-linejoin="miter" opacity="0.3"></path><path d="M30.345,18.405c1.573,-1.572 3.337,-2.823 5.166,-3.798" fill="none" stroke="#ffffff" stroke-width="3" stroke-linecap="round" stroke-linejoin="round"></path></g></g></svg>